<svg width="1659" height="186" viewBox="0 0 1659 186" xmlns="http://www.w3.org/2000/svg"><g id="fontsvg1666532668356" stroke-linecap="round" fill-rule="evenodd" stroke="#fffffa" stroke-width="0.3mm" fill="none" ><path d="M 119.46 1.982 L 119.46 5.282 L 111.21 5.282 L 111.21 91.082 L 119.46 91.082 L 119.46 94.382 L 78.21 94.382 L 78.21 91.082 L 86.46 91.082 L 86.46 11.387 L 53.79 96.032 L 49.995 96.032 L 13.365 9.077 L 13.365 91.082 L 26.565 91.082 L 26.565 94.382 L 0.165 94.382 L 0.165 91.082 L 10.065 91.082 L 10.065 5.282 L 0 5.282 L 0 1.982 L 36.795 1.982 L 62.535 63.857 L 86.46 1.982 L 119.46 1.982 Z M 1380.72 91.082 L 1397.22 91.082 A 31.203 31.203 0 0 0 1407.462 89.541 Q 1421.386 84.711 1421.946 64.736 A 60.7 60.7 0 0 0 1421.97 63.032 L 1425.27 63.032 L 1425.27 94.382 L 1347.72 94.382 L 1347.72 91.082 L 1355.97 91.082 L 1355.97 5.282 L 1347.72 5.282 L 1347.72 1.982 L 1423.62 1.982 L 1423.62 30.032 L 1420.32 30.032 Q 1420.32 18.319 1416.593 12.746 A 11.906 11.906 0 0 0 1414.463 10.315 Q 1408.856 5.498 1396.673 5.291 A 65.172 65.172 0 0 0 1395.57 5.282 L 1380.72 5.282 L 1380.72 44.882 L 1387.32 44.882 Q 1399.2 44.882 1402.335 41.912 Q 1404.887 39.494 1405.362 33.139 A 41.851 41.851 0 0 0 1405.47 30.032 L 1408.77 30.032 L 1408.77 63.032 L 1405.47 63.032 A 42.999 42.999 0 0 0 1405.32 59.298 Q 1404.784 53.179 1402.335 50.987 A 7.127 7.127 0 0 0 1400.137 49.727 Q 1396.524 48.332 1388.98 48.197 A 92.863 92.863 0 0 0 1387.32 48.182 L 1380.72 48.182 L 1380.72 91.082 Z M 511.995 16.667 L 511.995 91.082 L 525.195 91.082 L 525.195 94.382 L 498.795 94.382 L 498.795 91.082 L 508.695 91.082 L 508.695 12.542 A 33.51 33.51 0 0 0 506.256 9.538 Q 503.51 6.559 500.953 5.665 A 6.512 6.512 0 0 0 498.795 5.282 L 498.795 1.982 L 529.65 1.982 L 576.015 56.927 L 576.015 5.282 L 562.815 5.282 L 562.815 1.982 L 590.865 1.982 L 590.865 5.282 L 579.315 5.282 L 579.315 96.032 L 576.015 96.032 L 511.995 16.667 Z M 1444.245 94.382 L 1440.945 94.382 L 1440.945 55.937 L 1444.245 55.937 A 35.482 35.482 0 0 0 1454.867 81.824 A 43.297 43.297 0 0 0 1455.382 82.337 Q 1466.52 93.227 1482.525 93.227 A 18.249 18.249 0 0 0 1487.247 92.647 A 13.397 13.397 0 0 0 1493.168 89.35 A 12.917 12.917 0 0 0 1497.03 81.638 A 18.163 18.163 0 0 0 1497.21 79.037 A 11.09 11.09 0 0 0 1494.337 71.667 Q 1492.888 69.974 1490.709 68.448 A 30.269 30.269 0 0 0 1487.805 66.662 A 153.815 153.815 0 0 0 1484.783 65.151 Q 1480.106 62.868 1472.087 59.211 A 1221.24 1221.24 0 0 0 1470.15 58.33 A 205.768 205.768 0 0 1 1464.344 55.592 Q 1456.331 51.647 1452.495 48.677 A 24.346 24.346 0 0 1 1446.419 41.991 Q 1442.731 35.852 1443.502 27.722 A 35.421 35.421 0 0 1 1445.526 18.601 A 26.172 26.172 0 0 1 1453.32 7.51 Q 1461.9 0.332 1472.707 0.332 A 69.715 69.715 0 0 1 1483.282 1.1 A 53.978 53.978 0 0 1 1492.177 3.22 A 384.97 384.97 0 0 0 1494.226 3.896 Q 1499.633 5.665 1501.361 6.019 A 3.549 3.549 0 0 0 1501.995 6.107 A 2.72 2.72 0 0 0 1504.594 4.429 Q 1505.295 2.994 1505.295 0.332 L 1508.595 0.332 L 1508.595 30.527 L 1505.295 30.527 A 26.199 26.199 0 0 0 1503.381 20.37 A 24.499 24.499 0 0 0 1496.55 11.14 A 30.564 30.564 0 0 0 1481.901 4.311 A 42.797 42.797 0 0 0 1474.11 3.632 A 16.92 16.92 0 0 0 1470.144 4.071 A 11.369 11.369 0 0 0 1464.54 7.18 A 13.376 13.376 0 0 0 1462.362 10.065 A 10.123 10.123 0 0 0 1461.075 15.017 Q 1461.075 19.154 1462.149 21.45 A 7.138 7.138 0 0 0 1462.23 21.617 Q 1463.385 23.927 1466.272 25.825 Q 1468.483 27.278 1470.259 28.295 A 45.321 45.321 0 0 0 1471.305 28.877 A 35.661 35.661 0 0 0 1472.537 29.506 Q 1474.626 30.527 1478.153 32.012 Q 1482.855 33.992 1484.67 34.817 A 22869.952 22869.952 0 0 0 1487.812 36.245 Q 1492.934 38.572 1494.756 39.396 A 401.847 401.847 0 0 0 1495.395 39.685 A 41.974 41.974 0 0 1 1496.313 40.113 Q 1497.355 40.613 1498.792 41.354 A 188.458 188.458 0 0 1 1500.18 42.077 Q 1503.087 43.607 1504.646 44.854 A 11.947 11.947 0 0 1 1504.883 45.047 A 128.326 128.326 0 0 0 1505.723 45.748 Q 1506.979 46.788 1508.681 48.152 A 380.268 380.268 0 0 0 1508.925 48.347 Q 1510.964 49.978 1512.107 51.666 A 10.021 10.021 0 0 1 1512.555 52.39 Q 1513.71 54.452 1514.865 57.092 A 21.289 21.289 0 0 1 1516.449 62.955 Q 1516.838 65.994 1516.515 69.467 A 36.815 36.815 0 0 1 1514.618 78.253 A 25.691 25.691 0 0 1 1506.533 89.845 A 29.771 29.771 0 0 1 1495.443 95.367 Q 1491.155 96.531 1486.085 96.786 A 57.823 57.823 0 0 1 1483.185 96.857 A 54.367 54.367 0 0 1 1462.661 92.728 A 66.58 66.58 0 0 1 1456.95 90.092 Q 1453.623 88.367 1451.585 87.93 A 5.963 5.963 0 0 0 1450.35 87.782 Q 1445.534 87.782 1444.517 91.889 A 10.403 10.403 0 0 0 1444.245 94.382 Z M 333.3 92.732 L 333.3 96.032 L 326.04 96.032 Q 307.618 96.032 299.2 88.924 A 19.572 19.572 0 0 1 297.33 87.122 A 32.698 32.698 0 0 1 291.158 77.36 A 45.805 45.805 0 0 1 288.585 68.807 A 128.689 128.689 0 0 0 287.554 64.228 A 99.828 99.828 0 0 0 286.44 60.062 Q 283.8 51.152 275.715 51.152 L 268.455 51.152 L 268.455 91.082 L 276.705 91.082 L 276.705 94.382 L 235.455 94.382 L 235.455 91.082 L 243.705 91.082 L 243.705 5.282 L 235.455 5.282 L 235.455 1.982 L 278.85 1.982 A 107.631 107.631 0 0 1 293.149 2.847 Q 308.719 4.946 315.561 12.145 A 20.087 20.087 0 0 1 320.925 26.567 A 21.686 21.686 0 0 1 319.468 34.644 A 19.833 19.833 0 0 1 313.83 42.407 A 24.817 24.817 0 0 1 301.74 48.002 A 34.546 34.546 0 0 1 295.68 48.512 L 295.68 49.667 A 20.137 20.137 0 0 1 313.117 59.215 Q 315.506 62.718 317.301 67.504 A 58.186 58.186 0 0 1 318.615 71.447 Q 321.23 80.599 323.896 85.555 A 23.897 23.897 0 0 0 325.297 87.865 A 14.563 14.563 0 0 0 327.415 90.326 Q 330.052 92.732 333.3 92.732 Z M 805.2 1.982 L 833.91 1.982 L 833.91 5.282 L 822.69 5.282 L 787.545 94.382 L 783.255 94.382 L 741.84 5.282 L 733.92 5.282 L 733.92 1.982 L 780.615 1.982 L 780.615 5.282 L 772.53 5.282 L 796.62 60.557 L 818.4 5.282 L 805.2 5.282 L 805.2 1.982 Z M 1256.31 1.982 L 1285.02 1.982 L 1285.02 5.282 L 1273.8 5.282 L 1238.655 94.382 L 1234.365 94.382 L 1192.95 5.282 L 1185.03 5.282 L 1185.03 1.982 L 1231.725 1.982 L 1231.725 5.282 L 1223.64 5.282 L 1247.73 60.557 L 1269.51 5.282 L 1256.31 5.282 L 1256.31 1.982 Z M 1022.505 63.032 L 1025.805 63.032 L 1025.805 94.382 L 948.255 94.382 L 948.255 91.082 L 956.505 91.082 L 956.505 5.282 L 948.255 5.282 L 948.255 1.982 L 991.155 1.982 L 991.155 5.282 L 981.255 5.282 L 981.255 91.082 L 997.755 91.082 A 63.238 63.238 0 0 0 1001.542 90.976 Q 1004.699 90.786 1007.078 90.257 A 19.506 19.506 0 0 0 1010.972 88.924 Q 1012.708 88.128 1014.496 86.96 A 32.591 32.591 0 0 0 1014.75 86.792 Q 1021.368 82.427 1022.338 68.207 A 76.181 76.181 0 0 0 1022.505 63.032 Z M 220.935 91.082 L 228.855 91.082 L 228.855 94.382 L 185.46 94.382 L 185.46 91.082 L 195.195 91.082 L 184.14 68.147 L 150.81 68.147 L 141.24 91.082 L 154.275 91.082 L 154.275 94.382 L 126.06 94.382 L 126.06 91.082 L 137.115 91.082 L 174.9 0.332 L 179.025 0.332 L 220.935 91.082 Z M 485.925 91.082 L 493.845 91.082 L 493.845 94.382 L 450.45 94.382 L 450.45 91.082 L 460.185 91.082 L 449.13 68.147 L 415.8 68.147 L 406.23 91.082 L 419.265 91.082 L 419.265 94.382 L 391.05 94.382 L 391.05 91.082 L 402.105 91.082 L 439.89 0.332 L 444.015 0.332 L 485.925 91.082 Z M 932.085 91.082 L 940.005 91.082 L 940.005 94.382 L 896.61 94.382 L 896.61 91.082 L 906.345 91.082 L 895.29 68.147 L 861.96 68.147 L 852.39 91.082 L 865.425 91.082 L 865.425 94.382 L 837.21 94.382 L 837.21 91.082 L 848.265 91.082 L 886.05 0.332 L 890.175 0.332 L 932.085 91.082 Z M 1075.305 94.382 L 1034.055 94.382 L 1034.055 91.082 L 1042.305 91.082 L 1042.305 5.282 L 1034.055 5.282 L 1034.055 1.982 L 1075.305 1.982 A 63.511 63.511 0 0 1 1087.944 3.191 A 51.453 51.453 0 0 1 1097.333 6.025 A 50.772 50.772 0 0 1 1106.097 10.624 A 39.254 39.254 0 0 1 1113.255 16.667 A 48.676 48.676 0 0 1 1122.536 31.27 A 43.895 43.895 0 0 1 1125.63 47.687 Q 1125.63 63.777 1119.794 74.303 A 34.385 34.385 0 0 1 1113.255 82.75 Q 1100.88 94.382 1075.305 94.382 Z M 691.987 62.985 A 61.626 61.626 0 0 0 693.495 48.925 Q 693.495 26.237 680.543 13.12 A 42.382 42.382 0 0 0 660.862 1.844 A 58.885 58.885 0 0 0 645.727 0.002 A 62.847 62.847 0 0 0 635.336 0.827 A 44.271 44.271 0 0 0 610.665 13.202 A 43.463 43.463 0 0 0 599.17 34.008 A 63.04 63.04 0 0 0 597.465 49.09 A 76.689 76.689 0 0 0 597.473 50.178 Q 597.581 57.786 599.207 64.18 A 39.216 39.216 0 0 0 610.665 83.905 A 44.335 44.335 0 0 0 630.101 94.255 A 61.736 61.736 0 0 0 645.315 96.032 A 64.526 64.526 0 0 0 657.04 95.012 A 45.774 45.774 0 0 0 680.13 83.822 A 38.292 38.292 0 0 0 683.007 80.899 Q 689.518 73.526 691.987 62.985 Z M 1620.937 62.985 A 61.626 61.626 0 0 0 1622.445 48.925 Q 1622.445 26.237 1609.492 13.12 A 42.382 42.382 0 0 0 1589.812 1.844 A 58.885 58.885 0 0 0 1574.677 0.002 A 62.847 62.847 0 0 0 1564.286 0.827 A 44.271 44.271 0 0 0 1539.615 13.202 A 43.463 43.463 0 0 0 1528.12 34.008 A 63.04 63.04 0 0 0 1526.415 49.09 A 76.689 76.689 0 0 0 1526.423 50.178 Q 1526.531 57.786 1528.157 64.18 A 39.216 39.216 0 0 0 1539.615 83.905 A 44.335 44.335 0 0 0 1559.051 94.255 A 61.736 61.736 0 0 0 1574.265 96.032 A 64.526 64.526 0 0 0 1585.99 95.012 A 45.774 45.774 0 0 0 1609.08 83.822 A 38.292 38.292 0 0 0 1611.957 80.899 Q 1618.468 73.526 1620.937 62.985 Z M 382.8 91.082 L 382.8 94.382 L 341.55 94.382 L 341.55 91.082 L 349.8 91.082 L 349.8 5.282 L 341.55 5.282 L 341.55 1.982 L 382.8 1.982 L 382.8 5.282 L 374.55 5.282 L 374.55 91.082 L 382.8 91.082 Z M 1176.78 91.082 L 1176.78 94.382 L 1135.53 94.382 L 1135.53 91.082 L 1143.78 91.082 L 1143.78 5.282 L 1135.53 5.282 L 1135.53 1.982 L 1176.78 1.982 L 1176.78 5.282 L 1168.53 5.282 L 1168.53 91.082 L 1176.78 91.082 Z M 1334.52 91.082 L 1334.52 94.382 L 1293.27 94.382 L 1293.27 91.082 L 1301.52 91.082 L 1301.52 5.282 L 1293.27 5.282 L 1293.27 1.982 L 1334.52 1.982 L 1334.52 5.282 L 1326.27 5.282 L 1326.27 91.082 L 1334.52 91.082 Z M 661.367 15.37 A 37.68 37.68 0 0 0 661.237 15.1 A 29.342 29.342 0 0 0 657.911 9.665 Q 655.52 6.633 652.603 5.045 A 14.489 14.489 0 0 0 645.563 3.302 A 14.947 14.947 0 0 0 634.048 8.665 Q 632.14 10.793 630.532 13.765 A 36.542 36.542 0 0 0 629.805 15.182 Q 624.088 26.943 624.031 47.922 A 155.817 155.817 0 0 0 624.03 48.347 Q 624.03 68.621 629.045 80.062 A 36.99 36.99 0 0 0 629.557 81.182 A 26.891 26.891 0 0 0 632.998 86.7 A 15.515 15.515 0 0 0 645.48 92.732 A 16.848 16.848 0 0 0 661.047 82.587 Q 666.93 71.434 666.93 48.017 Q 666.93 27.138 661.367 15.37 Z M 1590.317 15.37 A 37.68 37.68 0 0 0 1590.187 15.1 A 29.342 29.342 0 0 0 1586.861 9.665 Q 1584.47 6.633 1581.553 5.045 A 14.489 14.489 0 0 0 1574.513 3.302 A 14.947 14.947 0 0 0 1562.998 8.665 Q 1561.09 10.793 1559.482 13.765 A 36.542 36.542 0 0 0 1558.755 15.182 Q 1553.038 26.943 1552.981 47.922 A 155.817 155.817 0 0 0 1552.98 48.347 Q 1552.98 68.621 1557.995 80.062 A 36.99 36.99 0 0 0 1558.507 81.182 A 26.891 26.891 0 0 0 1561.948 86.7 A 15.515 15.515 0 0 0 1574.43 92.732 A 16.848 16.848 0 0 0 1589.997 82.587 Q 1595.88 71.434 1595.88 48.017 Q 1595.88 27.138 1590.317 15.37 Z M 1067.055 5.282 L 1067.055 91.082 Q 1084.875 91.082 1092.795 81.43 A 28.593 28.593 0 0 0 1097.445 72.97 Q 1100.274 65.177 1100.656 53.61 A 112.187 112.187 0 0 0 1100.715 49.915 Q 1100.715 28.052 1092.135 16.667 A 27.847 27.847 0 0 0 1073.198 5.717 A 41.758 41.758 0 0 0 1067.055 5.282 Z M 268.455 5.282 L 268.455 47.852 A 89.445 89.445 0 0 0 275.591 47.589 Q 282.542 47.031 286.788 45.283 A 13.967 13.967 0 0 0 290.565 43.067 A 14.24 14.24 0 0 0 294.568 37.228 Q 295.472 34.887 295.867 31.963 A 36.648 36.648 0 0 0 296.175 27.062 A 34.475 34.475 0 0 0 295.666 20.924 Q 295.063 17.599 293.747 15.009 A 15.43 15.43 0 0 0 290.4 10.562 A 15.166 15.166 0 0 0 285.775 7.778 Q 279.572 5.282 268.455 5.282 Z M 166.32 31.022 L 152.295 64.682 L 182.49 64.682 L 166.32 31.022 Z M 431.31 31.022 L 417.285 64.682 L 447.48 64.682 L 431.31 31.022 Z M 877.47 31.022 L 863.445 64.682 L 893.64 64.682 L 877.47 31.022 Z" vector-effect="non-scaling-stroke"/></g></svg>