<svg width="1659" height="186" viewBox="0 0 1659 186" xmlns="http://www.w3.org/2000/svg"><g id="fontsvg1666534755286" stroke-linecap="round" fill-rule="evenodd" stroke="#fffffa" stroke-width="0.3mm" fill="none"><path d="M 80.52 78.76 L 59.07 78.76 L 59.07 37.62 L 45.98 66.55 L 34.54 66.55 L 21.45 37.62 L 21.45 78.76 L 0 78.76 L 0 0.66 L 23.43 0.66 L 40.26 37.4 L 57.2 0.66 L 80.52 0.66 L 80.52 78.76 Z M 404.36 78.76 L 373.34 40.37 L 373.34 78.76 L 351.89 78.76 L 351.89 0.66 L 368.61 0.66 L 399.96 40.37 L 399.96 0.66 L 421.41 0.66 L 421.41 78.76 L 404.36 78.76 Z M 995.5 60.06 L 1029.71 60.06 L 1029.71 78.76 L 974.05 78.76 L 974.05 0.66 L 1028.72 0.66 L 1028.72 19.36 L 995.5 19.36 L 995.5 30.36 L 1023.88 30.36 L 1023.88 47.74 L 995.5 47.74 L 995.5 60.06 Z M 1096.26 8.47 L 1087.02 26.18 Q 1083.72 24.2 1080.2 22.66 Q 1077.23 21.34 1073.545 20.185 Q 1069.86 19.03 1066.34 19.03 A 15.122 15.122 0 0 0 1064.549 19.129 Q 1062.907 19.326 1061.775 19.91 Q 1060.07 20.79 1060.07 22.88 A 3.913 3.913 0 0 0 1060.256 24.112 A 3.256 3.256 0 0 0 1061.06 25.41 A 6.604 6.604 0 0 0 1061.968 26.158 Q 1062.45 26.493 1063.048 26.806 A 14.408 14.408 0 0 0 1063.92 27.225 A 26.938 26.938 0 0 0 1065.576 27.886 Q 1066.476 28.214 1067.513 28.532 A 51.975 51.975 0 0 0 1068.485 28.82 A 155.025 155.025 0 0 1 1070.98 29.557 Q 1072.249 29.943 1073.645 30.387 A 259.214 259.214 0 0 1 1074.59 30.69 Q 1079.98 32.34 1084.325 34.32 A 33.658 33.658 0 0 1 1088.699 36.7 A 26.682 26.682 0 0 1 1091.75 38.995 Q 1094.83 41.69 1096.48 45.54 A 19.084 19.084 0 0 1 1097.664 49.512 Q 1098.13 51.968 1098.13 54.89 Q 1098.13 61.004 1096.181 65.417 A 18.219 18.219 0 0 1 1095.545 66.715 A 21.694 21.694 0 0 1 1090.739 72.81 A 20.435 20.435 0 0 1 1088.725 74.36 A 28.463 28.463 0 0 1 1080.227 78.212 A 32.667 32.667 0 0 1 1079.155 78.485 Q 1073.82 79.75 1068.43 79.75 A 60.394 60.394 0 0 1 1060.193 79.17 A 66.466 66.466 0 0 1 1059.63 79.09 Q 1055.12 78.43 1050.665 77.22 Q 1046.21 76.01 1042.085 74.36 A 56.333 56.333 0 0 1 1036.009 71.513 A 49.965 49.965 0 0 1 1034.44 70.62 L 1043.68 51.81 Q 1047.53 54.23 1051.71 56.1 A 50.413 50.413 0 0 0 1055.84 57.806 A 65.888 65.888 0 0 0 1059.685 59.07 Q 1064.14 60.39 1068.76 60.39 A 20.911 20.911 0 0 0 1070.386 60.332 Q 1071.958 60.208 1072.935 59.826 A 3.64 3.64 0 0 0 1073.655 59.455 A 3.446 3.446 0 0 0 1074.466 58.705 A 2.76 2.76 0 0 0 1075.03 56.98 A 3.469 3.469 0 0 0 1073.901 54.396 A 4.826 4.826 0 0 0 1073.655 54.175 A 9.08 9.08 0 0 0 1072.369 53.284 Q 1071.299 52.663 1069.86 52.14 Q 1067.601 51.319 1064.718 50.497 A 107.437 107.437 0 0 0 1064.305 50.38 A 112.995 112.995 0 0 1 1060.236 49.151 A 137.932 137.932 0 0 1 1057.65 48.29 A 70.837 70.837 0 0 1 1053.4 46.697 Q 1050.844 45.64 1048.74 44.495 Q 1045 42.46 1042.58 39.875 Q 1040.16 37.29 1039.005 33.99 Q 1037.85 30.69 1037.85 26.4 A 30.271 30.271 0 0 1 1038.405 20.474 A 23.31 23.31 0 0 1 1040.215 14.96 Q 1042.58 10.01 1046.65 6.71 Q 1050.72 3.41 1055.945 1.705 A 35.249 35.249 0 0 1 1066.455 0.004 A 39.582 39.582 0 0 1 1067 0 Q 1071.29 0 1075.36 0.825 Q 1079.43 1.65 1083.225 2.915 A 78.649 78.649 0 0 1 1088.425 4.847 A 67.662 67.662 0 0 1 1090.32 5.665 A 188.675 188.675 0 0 1 1093.455 7.109 A 139.065 139.065 0 0 1 1096.26 8.47 Z M 531.85 0.66 L 554.51 0.66 L 569.8 51.81 L 584.87 0.66 L 607.42 0.66 L 578.71 78.76 L 560.89 78.76 L 531.85 0.66 Z M 857.78 0.66 L 880.44 0.66 L 895.73 51.81 L 910.8 0.66 L 933.35 0.66 L 904.64 78.76 L 886.82 78.76 L 857.78 0.66 Z M 189.2 78.76 L 167.75 78.76 L 167.75 0.66 L 203.61 0.66 A 24.142 24.142 0 0 1 212.167 2.162 A 22.879 22.879 0 0 1 214.17 3.025 Q 219.01 5.39 222.475 9.185 Q 225.94 12.98 227.92 17.875 Q 229.9 22.77 229.9 27.72 Q 229.9 34.54 226.93 40.425 Q 223.96 46.31 218.68 50.05 L 236.28 78.76 L 212.08 78.76 L 197.23 54.78 L 189.2 54.78 L 189.2 78.76 Z M 109.12 78.76 L 86.35 78.76 L 115.5 0.66 L 132.88 0.66 L 161.92 78.76 L 139.26 78.76 L 134.53 63.47 L 113.74 63.47 L 109.12 78.76 Z M 293.26 78.76 L 270.49 78.76 L 299.64 0.66 L 317.02 0.66 L 346.06 78.76 L 323.4 78.76 L 318.67 63.47 L 297.88 63.47 L 293.26 78.76 Z M 628.43 78.76 L 605.66 78.76 L 634.81 0.66 L 652.19 0.66 L 681.23 78.76 L 658.57 78.76 L 653.84 63.47 L 633.05 63.47 L 628.43 78.76 Z M 743.93 78.76 L 687.06 78.76 L 687.06 0.66 L 708.51 0.66 L 708.51 60.06 L 743.93 60.06 L 743.93 78.76 Z M 781.77 78.76 L 751.74 78.76 L 751.74 0.66 L 781.77 0.66 Q 791.45 0.66 798.82 3.74 A 37.4 37.4 0 0 1 807.087 8.449 A 32.563 32.563 0 0 1 811.14 12.1 Q 816.09 17.38 818.62 24.475 A 44.358 44.358 0 0 1 821.137 38.475 A 50.36 50.36 0 0 1 821.15 39.6 A 48.857 48.857 0 0 1 820.311 48.835 A 39.458 39.458 0 0 1 818.345 55.715 A 35.459 35.459 0 0 1 812.226 66.043 A 33.415 33.415 0 0 1 810.37 68.035 A 35.344 35.344 0 0 1 799.283 75.409 A 40.848 40.848 0 0 1 797.94 75.955 A 41.644 41.644 0 0 1 787.44 78.458 A 51.849 51.849 0 0 1 781.77 78.76 Z M 457.723 77.986 A 35.501 35.501 0 0 0 467.94 79.42 A 40.318 40.318 0 0 0 469.539 79.389 A 34.419 34.419 0 0 0 483.12 76.12 Q 490.05 72.82 495 67.375 Q 499.95 61.93 502.755 54.835 Q 505.56 47.74 505.56 40.04 Q 505.56 32.56 502.92 25.41 Q 500.28 18.26 495.385 12.65 Q 490.49 7.04 483.615 3.63 A 31.708 31.708 0 0 0 478.597 1.654 A 35.501 35.501 0 0 0 468.38 0.22 A 40.546 40.546 0 0 0 466.087 0.284 A 34.31 34.31 0 0 0 453.255 3.465 Q 446.38 6.71 441.32 12.155 Q 436.26 17.6 433.455 24.75 Q 430.65 31.9 430.65 39.6 Q 430.65 47.19 433.345 54.34 Q 436.04 61.49 440.935 67.045 Q 445.83 72.6 452.705 76.01 A 31.708 31.708 0 0 0 457.723 77.986 Z M 1130.483 77.986 A 35.501 35.501 0 0 0 1140.7 79.42 A 40.318 40.318 0 0 0 1142.299 79.389 A 34.419 34.419 0 0 0 1155.88 76.12 Q 1162.81 72.82 1167.76 67.375 Q 1172.71 61.93 1175.515 54.835 Q 1178.32 47.74 1178.32 40.04 Q 1178.32 32.56 1175.68 25.41 Q 1173.04 18.26 1168.145 12.65 Q 1163.25 7.04 1156.375 3.63 A 31.708 31.708 0 0 0 1151.357 1.654 A 35.501 35.501 0 0 0 1141.14 0.22 A 40.546 40.546 0 0 0 1138.847 0.284 A 34.31 34.31 0 0 0 1126.015 3.465 Q 1119.14 6.71 1114.08 12.155 Q 1109.02 17.6 1106.215 24.75 Q 1103.41 31.9 1103.41 39.6 Q 1103.41 47.19 1106.105 54.34 Q 1108.8 61.49 1113.695 67.045 Q 1118.59 72.6 1125.465 76.01 A 31.708 31.708 0 0 0 1130.483 77.986 Z M 264.66 78.76 L 243.21 78.76 L 243.21 0.66 L 264.66 0.66 L 264.66 78.76 Z M 852.06 78.76 L 830.61 78.76 L 830.61 0.66 L 852.06 0.66 L 852.06 78.76 Z M 960.63 78.76 L 939.18 78.76 L 939.18 0.66 L 960.63 0.66 L 960.63 78.76 Z M 781.77 19.36 L 773.19 19.36 L 773.19 60.06 L 781.77 60.06 A 19.448 19.448 0 0 0 785.963 59.625 A 15.773 15.773 0 0 0 789.25 58.52 Q 792.55 56.98 794.805 54.23 A 18.329 18.329 0 0 0 797.7 49.219 A 21.776 21.776 0 0 0 798.215 47.74 A 26.058 26.058 0 0 0 799.268 42.154 A 31.418 31.418 0 0 0 799.37 39.6 A 29.316 29.316 0 0 0 798.987 34.77 A 23.858 23.858 0 0 0 798.16 31.35 A 20.108 20.108 0 0 0 796.468 27.491 A 16.711 16.711 0 0 0 794.695 24.97 Q 792.44 22.33 789.14 20.845 A 16.919 16.919 0 0 0 783.878 19.465 A 20.757 20.757 0 0 0 781.77 19.36 Z M 452.43 39.82 Q 452.43 43.78 453.365 47.465 A 20.924 20.924 0 0 0 455.145 52.142 A 18.531 18.531 0 0 0 456.28 54.01 Q 458.26 56.87 461.23 58.63 A 12.551 12.551 0 0 0 466.011 60.251 A 16.121 16.121 0 0 0 468.16 60.39 A 15.322 15.322 0 0 0 471.734 59.991 A 11.921 11.921 0 0 0 475.2 58.575 Q 478.17 56.76 480.04 53.845 A 21.284 21.284 0 0 0 482.31 49.036 A 25.413 25.413 0 0 0 482.845 47.19 Q 483.78 43.45 483.78 39.6 Q 483.78 35.64 482.79 31.955 A 22.484 22.484 0 0 0 481.212 27.742 A 19.017 19.017 0 0 0 479.875 25.465 Q 477.95 22.66 474.98 20.955 A 12.748 12.748 0 0 0 470.428 19.417 A 16.459 16.459 0 0 0 468.05 19.25 Q 463.98 19.25 461.065 21.01 Q 458.15 22.77 456.225 25.685 A 20.952 20.952 0 0 0 453.716 31.041 A 24.34 24.34 0 0 0 453.365 32.285 Q 452.43 35.97 452.43 39.82 Z M 1125.19 39.82 Q 1125.19 43.78 1126.125 47.465 A 20.924 20.924 0 0 0 1127.905 52.142 A 18.531 18.531 0 0 0 1129.04 54.01 Q 1131.02 56.87 1133.99 58.63 A 12.551 12.551 0 0 0 1138.771 60.251 A 16.121 16.121 0 0 0 1140.92 60.39 A 15.322 15.322 0 0 0 1144.494 59.991 A 11.921 11.921 0 0 0 1147.96 58.575 Q 1150.93 56.76 1152.8 53.845 A 21.284 21.284 0 0 0 1155.07 49.036 A 25.413 25.413 0 0 0 1155.605 47.19 Q 1156.54 43.45 1156.54 39.6 Q 1156.54 35.64 1155.55 31.955 A 22.484 22.484 0 0 0 1153.972 27.742 A 19.017 19.017 0 0 0 1152.635 25.465 Q 1150.71 22.66 1147.74 20.955 A 12.748 12.748 0 0 0 1143.188 19.417 A 16.459 16.459 0 0 0 1140.81 19.25 Q 1136.74 19.25 1133.825 21.01 Q 1130.91 22.77 1128.985 25.685 A 20.952 20.952 0 0 0 1126.476 31.041 A 24.34 24.34 0 0 0 1126.125 32.285 Q 1125.19 35.97 1125.19 39.82 Z M 131.12 49.17 L 124.19 22.99 L 116.93 49.17 L 131.12 49.17 Z M 315.26 49.17 L 308.33 22.99 L 301.07 49.17 L 315.26 49.17 Z M 650.43 49.17 L 643.5 22.99 L 636.24 49.17 L 650.43 49.17 Z M 189.2 19.36 L 189.2 36.08 L 202.73 36.08 A 3.736 3.736 0 0 0 204.806 35.427 Q 205.639 34.881 206.415 33.88 Q 207.775 32.125 208.05 29.249 A 16.076 16.076 0 0 0 208.12 27.72 Q 208.12 23.65 206.14 21.505 Q 204.908 20.17 203.676 19.666 A 3.923 3.923 0 0 0 202.18 19.36 L 189.2 19.36 Z" vector-effect="non-scaling-stroke"/></g></svg>