<svg width="394pt" height="24pt" viewBox="-0.6 -0.6 395 25" xmlns="http://www.w3.org/2000/svg"><g id="fontsvg1666523510016" stroke-linecap="round" fill-rule="evenodd" stroke="#fffffa" stroke-width="0.3mm" fill="none"><path d="M 28.96 0.481 L 28.96 1.281 L 26.96 1.281 L 26.96 22.081 L 28.96 22.081 L 28.96 22.881 L 18.96 22.881 L 18.96 22.081 L 20.96 22.081 L 20.96 2.761 L 13.04 23.281 L 12.12 23.281 L 3.24 2.201 L 3.24 22.081 L 6.44 22.081 L 6.44 22.881 L 0.04 22.881 L 0.04 22.081 L 2.44 22.081 L 2.44 1.281 L 0 1.281 L 0 0.481 L 8.92 0.481 L 15.16 15.481 L 20.96 0.481 L 28.96 0.481 Z M 334.72 22.081 L 338.72 22.081 A 7.564 7.564 0 0 0 341.203 21.707 Q 344.578 20.536 344.714 15.694 A 14.716 14.716 0 0 0 344.72 15.281 L 345.52 15.281 L 345.52 22.881 L 326.72 22.881 L 326.72 22.081 L 328.72 22.081 L 328.72 1.281 L 326.72 1.281 L 326.72 0.481 L 345.12 0.481 L 345.12 7.281 L 344.32 7.281 Q 344.32 4.441 343.416 3.09 A 2.886 2.886 0 0 0 342.9 2.501 A 4.226 4.226 0 0 0 341.59 1.757 Q 340.384 1.313 338.587 1.283 A 15.8 15.8 0 0 0 338.32 1.281 L 334.72 1.281 L 334.72 10.881 L 336.32 10.881 A 17.906 17.906 0 0 0 337.479 10.846 Q 339.366 10.723 339.96 10.161 A 1.842 1.842 0 0 0 340.369 9.552 Q 340.624 8.968 340.694 8.034 A 10.146 10.146 0 0 0 340.72 7.281 L 341.52 7.281 L 341.52 15.281 L 340.72 15.281 Q 340.72 13.687 340.335 12.883 A 1.638 1.638 0 0 0 339.96 12.361 Q 339.255 11.729 336.722 11.684 A 22.511 22.511 0 0 0 336.32 11.681 L 334.72 11.681 L 334.72 22.081 Z M 124.12 4.041 L 124.12 22.081 L 127.32 22.081 L 127.32 22.881 L 120.92 22.881 L 120.92 22.081 L 123.32 22.081 L 123.32 3.041 A 8.124 8.124 0 0 0 122.729 2.312 Q 122.063 1.59 121.443 1.373 A 1.579 1.579 0 0 0 120.92 1.281 L 120.92 0.481 L 128.4 0.481 L 139.64 13.801 L 139.64 1.281 L 136.44 1.281 L 136.44 0.481 L 143.24 0.481 L 143.24 1.281 L 140.44 1.281 L 140.44 23.281 L 139.64 23.281 L 124.12 4.041 Z M 350.12 22.881 L 349.32 22.881 L 349.32 13.561 L 350.12 13.561 A 8.602 8.602 0 0 0 352.695 19.836 A 10.496 10.496 0 0 0 352.82 19.961 A 9.058 9.058 0 0 0 359.392 22.601 A 11.959 11.959 0 0 0 359.4 22.601 A 4.424 4.424 0 0 0 360.545 22.46 A 3.248 3.248 0 0 0 361.98 21.661 A 3.131 3.131 0 0 0 362.916 19.791 A 4.403 4.403 0 0 0 362.96 19.161 A 2.689 2.689 0 0 0 362.263 17.374 Q 361.7 16.715 360.68 16.161 A 37.288 37.288 0 0 0 359.948 15.794 Q 358.814 15.241 356.87 14.354 A 296.21 296.21 0 0 0 356.4 14.141 Q 353.999 13.051 352.721 12.223 A 8.809 8.809 0 0 1 352.12 11.801 Q 349.908 10.088 349.908 7.388 A 7.063 7.063 0 0 1 349.94 6.721 A 8.587 8.587 0 0 1 350.431 4.509 A 6.345 6.345 0 0 1 352.32 1.821 Q 354.4 0.081 357.02 0.081 A 16.901 16.901 0 0 1 359.584 0.267 A 13.086 13.086 0 0 1 361.74 0.781 A 93.321 93.321 0 0 0 362.237 0.945 Q 363.875 1.481 364.12 1.481 Q 364.87 1.481 364.917 0.251 A 4.453 4.453 0 0 0 364.92 0.081 L 365.72 0.081 L 365.72 7.401 L 364.92 7.401 A 6.351 6.351 0 0 0 364.456 4.938 A 5.939 5.939 0 0 0 362.8 2.701 A 7.409 7.409 0 0 0 359.249 1.045 A 10.375 10.375 0 0 0 357.36 0.881 A 4.102 4.102 0 0 0 356.398 0.987 A 2.756 2.756 0 0 0 355.04 1.741 Q 354.2 2.601 354.2 3.641 A 6.221 6.221 0 0 0 354.226 4.23 Q 354.282 4.819 354.46 5.2 A 1.73 1.73 0 0 0 354.48 5.241 A 2.173 2.173 0 0 0 354.85 5.76 Q 355.099 6.023 355.46 6.261 Q 356.16 6.721 356.68 7.001 Q 357.2 7.281 358.34 7.761 A 177.985 177.985 0 0 1 358.859 7.98 Q 359.588 8.29 359.92 8.441 A 5553.445 5553.445 0 0 0 360.682 8.787 Q 361.923 9.351 362.365 9.551 A 97.363 97.363 0 0 0 362.52 9.621 A 10.176 10.176 0 0 1 362.743 9.724 Q 363.11 9.901 363.68 10.201 A 11.257 11.257 0 0 1 364.115 10.441 Q 364.511 10.673 364.763 10.874 A 2.896 2.896 0 0 1 364.82 10.921 Q 365.181 11.225 365.741 11.673 A 92.054 92.054 0 0 0 365.8 11.721 A 4.569 4.569 0 0 1 366.22 12.099 Q 366.509 12.396 366.68 12.701 Q 366.96 13.201 367.24 13.841 Q 367.784 15.085 367.648 16.745 A 8.719 8.719 0 0 1 367.64 16.841 A 8.925 8.925 0 0 1 367.18 18.97 A 6.228 6.228 0 0 1 365.22 21.781 Q 363.12 23.481 359.56 23.481 A 13.18 13.18 0 0 1 354.584 22.48 A 16.141 16.141 0 0 1 353.2 21.841 A 9.74 9.74 0 0 0 352.702 21.599 Q 352.231 21.387 351.899 21.316 A 1.445 1.445 0 0 0 351.6 21.281 Q 350.12 21.281 350.12 22.881 Z M 80.8 22.481 L 80.8 23.281 L 79.04 23.281 Q 74.04 23.281 72.08 21.121 A 7.927 7.927 0 0 1 70.584 18.754 A 11.104 11.104 0 0 1 69.96 16.681 Q 69.72 15.521 69.44 14.561 Q 68.8 12.401 66.84 12.401 L 65.08 12.401 L 65.08 22.081 L 67.08 22.081 L 67.08 22.881 L 57.08 22.881 L 57.08 22.081 L 59.08 22.081 L 59.08 1.281 L 57.08 1.281 L 57.08 0.481 L 67.6 0.481 Q 74.158 0.481 76.5 2.944 A 4.87 4.87 0 0 1 77.8 6.441 A 5.257 5.257 0 0 1 77.447 8.399 A 4.808 4.808 0 0 1 76.08 10.281 A 6.016 6.016 0 0 1 73.149 11.637 A 8.375 8.375 0 0 1 71.68 11.761 L 71.68 12.041 A 4.882 4.882 0 0 1 75.907 14.355 Q 76.486 15.204 76.921 16.365 A 14.106 14.106 0 0 1 77.24 17.321 A 29.69 29.69 0 0 0 77.641 18.619 Q 78.078 19.918 78.52 20.741 A 5.793 5.793 0 0 0 78.86 21.301 Q 79.68 22.481 80.8 22.481 Z M 195.2 0.481 L 202.16 0.481 L 202.16 1.281 L 199.44 1.281 L 190.92 22.881 L 189.88 22.881 L 179.84 1.281 L 177.92 1.281 L 177.92 0.481 L 189.24 0.481 L 189.24 1.281 L 187.28 1.281 L 193.12 14.681 L 198.4 1.281 L 195.2 1.281 L 195.2 0.481 Z M 304.56 0.481 L 311.52 0.481 L 311.52 1.281 L 308.8 1.281 L 300.28 22.881 L 299.24 22.881 L 289.2 1.281 L 287.28 1.281 L 287.28 0.481 L 298.6 0.481 L 298.6 1.281 L 296.64 1.281 L 302.48 14.681 L 307.76 1.281 L 304.56 1.281 L 304.56 0.481 Z M 247.88 15.281 L 248.68 15.281 L 248.68 22.881 L 229.88 22.881 L 229.88 22.081 L 231.88 22.081 L 231.88 1.281 L 229.88 1.281 L 229.88 0.481 L 240.28 0.481 L 240.28 1.281 L 237.88 1.281 L 237.88 22.081 L 241.88 22.081 A 15.33 15.33 0 0 0 242.798 22.055 Q 243.563 22.009 244.14 21.881 A 4.729 4.729 0 0 0 245.084 21.557 Q 245.505 21.364 245.938 21.081 A 7.902 7.902 0 0 0 246 21.041 Q 247.604 19.982 247.84 16.535 A 18.468 18.468 0 0 0 247.88 15.281 Z M 53.56 22.081 L 55.48 22.081 L 55.48 22.881 L 44.96 22.881 L 44.96 22.081 L 47.32 22.081 L 44.64 16.521 L 36.56 16.521 L 34.24 22.081 L 37.4 22.081 L 37.4 22.881 L 30.56 22.881 L 30.56 22.081 L 33.24 22.081 L 42.4 0.081 L 43.4 0.081 L 53.56 22.081 Z M 117.8 22.081 L 119.72 22.081 L 119.72 22.881 L 109.2 22.881 L 109.2 22.081 L 111.56 22.081 L 108.88 16.521 L 100.8 16.521 L 98.48 22.081 L 101.64 22.081 L 101.64 22.881 L 94.8 22.881 L 94.8 22.081 L 97.48 22.081 L 106.64 0.081 L 107.64 0.081 L 117.8 22.081 Z M 225.96 22.081 L 227.88 22.081 L 227.88 22.881 L 217.36 22.881 L 217.36 22.081 L 219.72 22.081 L 217.04 16.521 L 208.96 16.521 L 206.64 22.081 L 209.8 22.081 L 209.8 22.881 L 202.96 22.881 L 202.96 22.081 L 205.64 22.081 L 214.8 0.081 L 215.8 0.081 L 225.96 22.081 Z M 260.68 22.881 L 250.68 22.881 L 250.68 22.081 L 252.68 22.081 L 252.68 1.281 L 250.68 1.281 L 250.68 0.481 L 260.68 0.481 A 15.397 15.397 0 0 1 263.744 0.774 A 12.473 12.473 0 0 1 266.02 1.461 A 12.308 12.308 0 0 1 268.145 2.575 A 9.516 9.516 0 0 1 269.88 4.041 Q 272.88 7.361 272.88 11.561 Q 272.88 15.461 271.465 18.013 A 8.336 8.336 0 0 1 269.88 20.061 Q 267.582 22.221 263.406 22.726 A 22.724 22.724 0 0 1 260.68 22.881 Z M 164.88 20.321 A 9.283 9.283 0 0 0 165.577 19.612 Q 168.12 16.733 168.12 11.861 A 15.665 15.665 0 0 0 167.749 8.353 A 10.55 10.55 0 0 0 164.98 3.181 Q 161.84 0.001 156.54 0.001 A 15.236 15.236 0 0 0 154.021 0.201 A 10.732 10.732 0 0 0 148.04 3.201 A 10.537 10.537 0 0 0 145.253 8.244 A 15.282 15.282 0 0 0 144.84 11.901 A 18.59 18.59 0 0 0 144.842 12.164 Q 144.917 17.471 148.04 20.341 A 10.748 10.748 0 0 0 152.752 22.85 A 14.966 14.966 0 0 0 156.44 23.281 A 15.643 15.643 0 0 0 159.282 23.033 A 11.097 11.097 0 0 0 164.88 20.321 Z M 390.08 20.321 A 9.283 9.283 0 0 0 390.777 19.612 Q 393.32 16.733 393.32 11.861 A 15.665 15.665 0 0 0 392.949 8.353 A 10.55 10.55 0 0 0 390.18 3.181 Q 387.04 0.001 381.74 0.001 A 15.236 15.236 0 0 0 379.221 0.201 A 10.732 10.732 0 0 0 373.24 3.201 A 10.537 10.537 0 0 0 370.453 8.244 A 15.282 15.282 0 0 0 370.04 11.901 A 18.59 18.59 0 0 0 370.042 12.164 Q 370.117 17.471 373.24 20.341 A 10.748 10.748 0 0 0 377.952 22.85 A 14.966 14.966 0 0 0 381.64 23.281 A 15.643 15.643 0 0 0 384.482 23.033 A 11.097 11.097 0 0 0 390.08 20.321 Z M 92.8 22.081 L 92.8 22.881 L 82.8 22.881 L 82.8 22.081 L 84.8 22.081 L 84.8 1.281 L 82.8 1.281 L 82.8 0.481 L 92.8 0.481 L 92.8 1.281 L 90.8 1.281 L 90.8 22.081 L 92.8 22.081 Z M 285.28 22.081 L 285.28 22.881 L 275.28 22.881 L 275.28 22.081 L 277.28 22.081 L 277.28 1.281 L 275.28 1.281 L 275.28 0.481 L 285.28 0.481 L 285.28 1.281 L 283.28 1.281 L 283.28 22.081 L 285.28 22.081 Z M 323.52 22.081 L 323.52 22.881 L 313.52 22.881 L 313.52 22.081 L 315.52 22.081 L 315.52 1.281 L 313.52 1.281 L 313.52 0.481 L 323.52 0.481 L 323.52 1.281 L 321.52 1.281 L 321.52 22.081 L 323.52 22.081 Z M 161.68 11.641 A 30.733 30.733 0 0 0 161.545 8.661 Q 161.254 5.677 160.331 3.726 A 9.14 9.14 0 0 0 160.3 3.661 A 7.113 7.113 0 0 0 159.493 2.343 Q 158.914 1.608 158.207 1.223 A 3.513 3.513 0 0 0 156.5 0.801 A 3.624 3.624 0 0 0 153.709 2.101 Q 153.139 2.736 152.68 3.681 Q 151.294 6.532 151.28 11.617 A 37.751 37.751 0 0 0 151.28 11.721 Q 151.28 16.881 152.62 19.681 Q 153.96 22.481 156.48 22.481 A 4.084 4.084 0 0 0 160.254 20.021 Q 161.68 17.317 161.68 11.641 Z M 386.88 11.641 A 30.733 30.733 0 0 0 386.745 8.661 Q 386.454 5.677 385.531 3.726 A 9.14 9.14 0 0 0 385.5 3.661 A 7.113 7.113 0 0 0 384.693 2.343 Q 384.114 1.608 383.407 1.223 A 3.513 3.513 0 0 0 381.7 0.801 A 3.624 3.624 0 0 0 378.909 2.101 Q 378.339 2.736 377.88 3.681 Q 376.494 6.532 376.48 11.617 A 37.751 37.751 0 0 0 376.48 11.721 Q 376.48 16.881 377.82 19.681 Q 379.16 22.481 381.68 22.481 A 4.084 4.084 0 0 0 385.454 20.021 Q 386.88 17.317 386.88 11.641 Z M 258.68 1.281 L 258.68 22.081 A 12.551 12.551 0 0 0 260.977 21.885 Q 262.226 21.652 263.19 21.142 A 5.595 5.595 0 0 0 264.92 19.741 Q 266.674 17.603 266.826 12.996 A 27.197 27.197 0 0 0 266.84 12.101 A 21.646 21.646 0 0 0 266.647 9.107 Q 266.206 5.96 264.76 4.041 Q 262.68 1.281 258.68 1.281 Z M 65.08 1.281 L 65.08 11.601 A 21.684 21.684 0 0 0 66.81 11.537 Q 69.399 11.329 70.44 10.441 Q 71.8 9.281 71.8 6.561 A 8.358 8.358 0 0 0 71.677 5.072 Q 71.53 4.266 71.211 3.639 A 3.741 3.741 0 0 0 70.4 2.561 Q 69.263 1.521 66.465 1.326 A 19.933 19.933 0 0 0 65.08 1.281 Z M 40.32 7.521 L 36.92 15.681 L 44.24 15.681 L 40.32 7.521 Z M 104.56 7.521 L 101.16 15.681 L 108.48 15.681 L 104.56 7.521 Z M 212.72 7.521 L 209.32 15.681 L 216.64 15.681 L 212.72 7.521 Z" vector-effect="non-scaling-stroke"/></g></svg>